<?xml version="1.0"?>
<svg xmlns="http://www.w3.org/2000/svg" xmlns:xlink="http://www.w3.org/1999/xlink" xmlns:svgjs="http://svgjs.com/svgjs" version="1.1" width="512" height="512" x="0" y="0" viewBox="0 0 24 24" style="enable-background:new 0 0 512 512" xml:space="preserve"><g><path xmlns="http://www.w3.org/2000/svg" d="M24,12A12,12,0,1,0,12,24,12.013,12.013,0,0,0,24,12ZM9.465,17.707,5.879,14.121h0a3,3,0,0,1,0-4.243L9.465,6.293l.025-.024a1,1,0,1,1,1.389,1.438L7.586,11,18,10.993a1,1,0,0,1,0,2L7.587,13l3.292,3.293a1,1,0,1,1-1.414,1.414Z" fill="#525256" data-original="#000000"/></g></svg>
