<?xml version="1.0"?>
<svg xmlns="http://www.w3.org/2000/svg" xmlns:xlink="http://www.w3.org/1999/xlink" xmlns:svgjs="http://svgjs.com/svgjs" version="1.1" width="512" height="512" x="0" y="0" viewBox="0 0 24 24" style="enable-background:new 0 0 512 512" xml:space="preserve"><g><path xmlns="http://www.w3.org/2000/svg" d="M0,12A12,12,0,1,0,12,0,12.013,12.013,0,0,0,0,12ZM14.535,6.293l3.586,3.586h0a3,3,0,0,1,0,4.243l-3.586,3.585-.025.024a1,1,0,1,1-1.389-1.438L16.414,13,6,13.007a1,1,0,1,1,0-2L16.413,11,13.121,7.707a1,1,0,1,1,1.414-1.414Z" fill="#525256" data-original="#000000"/></g></svg>
